<?xml version="1.0" encoding="UTF-8" standalone="no"?>
<!DOCTYPE svg PUBLIC "-//W3C//DTD SVG 1.1//EN" "http://www.w3.org/Graphics/SVG/1.1/DTD/svg11.dtd">
<svg version="1.1" xmlns="http://www.w3.org/2000/svg" xmlns:xlink="http://www.w3.org/1999/xlink" preserveAspectRatio="xMidYMid meet" viewBox="0 0 700 700" width="700" height="700"><defs><path d="M632.23 253.06C632.23 253.07 632.23 253.07 632.23 253.07C629.75 256.69 609.94 285.67 607.47 289.29C577.26 169.85 470.2 85.88 347 85C201.43 85 87 205.36 87 350.84C86.88 496.61 204.96 614.88 350.74 615C420.85 615.05 488.1 587.21 537.66 537.62C549.37 525.9 549.37 506.9 537.65 495.19C525.93 483.47 506.93 483.48 495.22 495.2C495.22 495.2 495.22 495.2 495.22 495.2C415.6 574.88 286.47 574.93 206.79 495.31C168.46 457.01 146.94 405.03 147 350.84C147 238.44 234.52 145 347 145C443.31 145.86 526.75 212.01 549.57 305.59C545.25 301.62 510.74 269.88 506.43 265.91C494.23 254.69 475.24 255.49 464.03 267.69C452.81 279.89 453.61 298.87 465.81 310.09C475.54 319.04 553.44 390.66 563.18 399.61C563.31 399.74 563.48 399.81 563.61 399.94C564.28 400.54 565.04 401.04 565.76 401.57C566.54 402.18 567.35 402.75 568.19 403.27C568.95 403.73 569.78 404.09 570.59 404.47C571.5 404.93 572.43 405.34 573.38 405.7C574.18 406 575.01 406.2 575.84 406.41C576.9 406.7 577.98 406.93 579.07 407.11C579.41 407.17 579.72 407.28 580.07 407.33C580.58 407.39 581.09 407.31 581.61 407.35C582.24 407.39 582.85 407.52 583.48 407.52C584.18 407.52 584.89 407.45 585.6 407.4C585.65 407.4 585.92 407.38 586.4 407.36C586.7 407.34 586.86 407.33 586.9 407.33C587.5 407.26 588.08 407.03 588.69 406.93C589.99 406.72 591.29 406.43 592.56 406.06C593.39 405.79 594.16 405.42 594.95 405.09C596.02 404.67 597.07 404.18 598.09 403.63C598.89 403.17 599.67 402.66 600.42 402.12C601.33 401.5 602.21 400.83 603.05 400.12C603.75 399.52 604.4 398.88 605.04 398.22C605.83 397.39 606.58 396.51 607.28 395.6C607.58 395.2 607.97 394.87 608.25 394.46C615.6 383.71 674.42 297.69 681.77 286.94C691.11 273.26 687.6 254.59 673.93 245.24C660.25 235.88 641.58 239.39 632.23 253.06Z" id="aTuFYqKmp"></path></defs><g><g><g><use xlink:href="#aTuFYqKmp" opacity="1" fill="#202020" fill-opacity="1"></use><g><use xlink:href="#aTuFYqKmp" opacity="1" fill-opacity="0" stroke="#000000" stroke-width="1" stroke-opacity="0"></use></g></g></g></g></svg>